<svg width="66" height="75" viewBox="0 0 66 75" fill="none" xmlns="http://www.w3.org/2000/svg">
<path d="M58.9286 4.6875H7.07143C3.16741 4.6875 0 7.83691 0 11.7188V63.2812C0 67.1631 3.16741 70.3125 7.07143 70.3125H58.9286C62.8326 70.3125 66 67.1631 66 63.2812V11.7188C66 7.83691 62.8326 4.6875 58.9286 4.6875ZM40.8522 60.8936C39.6147 61.1133 39.158 60.3516 39.158 59.7217C39.158 58.9307 39.1875 54.8877 39.1875 51.6211C39.1875 49.3359 38.4214 47.8857 37.5228 47.124C42.9737 46.5234 48.7192 45.7764 48.7192 36.416C48.7192 33.75 47.7616 32.417 46.2 30.7031C46.4504 30.0732 47.2902 27.4805 45.9496 24.1113C43.9018 23.4814 39.217 26.7334 39.217 26.7334C37.2723 26.1914 35.1656 25.9131 33.0884 25.9131C31.0112 25.9131 28.9045 26.1914 26.9598 26.7334C26.9598 26.7334 22.275 23.4814 20.2272 24.1113C18.8866 27.4658 19.7116 30.0586 19.9768 30.7031C18.4152 32.417 17.6786 33.75 17.6786 36.416C17.6786 45.7324 23.1737 46.5234 28.6246 47.124C27.9174 47.7539 27.2839 48.8379 27.0629 50.3906C25.6634 51.0205 22.0835 52.1045 19.9473 48.3545C18.6067 46.04 16.1906 45.8496 16.1906 45.8496C13.804 45.8203 16.0286 47.3438 16.0286 47.3438C17.6196 48.0762 18.7393 50.8887 18.7393 50.8887C20.1683 55.2393 27.004 53.7744 27.004 53.7744C27.004 55.8105 27.0335 59.1211 27.0335 59.7217C27.0335 60.3516 26.5915 61.1133 25.3393 60.8936C15.6161 57.6562 8.80982 48.457 8.80982 37.7051C8.80982 24.2578 19.1518 14.0479 32.6759 14.0479C46.2 14.0479 57.1607 24.2578 57.1607 37.7051C57.1754 48.457 50.5754 57.6709 40.8522 60.8936ZM26.4 51.9434C26.1201 52.002 25.8549 51.8848 25.8254 51.6943C25.796 51.4746 25.9875 51.2842 26.2674 51.2256C26.5473 51.1963 26.8125 51.3135 26.842 51.5039C26.8862 51.6943 26.6946 51.8848 26.4 51.9434ZM25.0004 51.8115C25.0004 52.002 24.7795 52.1631 24.4848 52.1631C24.1607 52.1924 23.9397 52.0312 23.9397 51.8115C23.9397 51.6211 24.1607 51.46 24.4554 51.46C24.7353 51.4307 25.0004 51.5918 25.0004 51.8115ZM22.9821 51.6504C22.9232 51.8408 22.6286 51.9287 22.3781 51.8408C22.0982 51.7822 21.9067 51.5625 21.9656 51.3721C22.0246 51.1816 22.3192 51.0938 22.5696 51.1523C22.8643 51.2402 23.0558 51.46 22.9821 51.6504ZM21.1701 50.8594C21.0375 51.0205 20.7576 50.9912 20.5366 50.7715C20.3156 50.5811 20.2567 50.3027 20.404 50.1709C20.5366 50.0098 20.8165 50.0391 21.0375 50.2588C21.229 50.4492 21.3027 50.7422 21.1701 50.8594ZM19.8295 49.5264C19.6969 49.6143 19.4464 49.5264 19.2844 49.3066C19.1223 49.0869 19.1223 48.8379 19.2844 48.7354C19.4464 48.6035 19.6969 48.7061 19.8295 48.9258C19.9915 49.1455 19.9915 49.4092 19.8295 49.5264ZM18.8719 48.1055C18.7393 48.2373 18.5183 48.1641 18.3563 48.0176C18.1942 47.8271 18.1647 47.6074 18.2973 47.5049C18.4299 47.373 18.6509 47.4463 18.8129 47.5928C18.975 47.7832 19.0045 48.0029 18.8719 48.1055ZM17.8848 47.0215C17.8259 47.1533 17.6344 47.1826 17.4723 47.0801C17.2808 46.9922 17.1924 46.8311 17.2513 46.6992C17.3103 46.6113 17.4723 46.5674 17.6638 46.6406C17.8554 46.7432 17.9438 46.9043 17.8848 47.0215Z" fill="white"/>
</svg>
